<?xml version="1.0" encoding="UTF-8" standalone="no"?>
<svg
   version="1.0"
   width="574.71228"
   height="574.71228"
   viewBox="-32 -8 431.03423 431.03422"
   preserveAspectRatio="xMidYMid"
   id="svg22"
   xmlns="http://www.w3.org/2000/svg"
   xmlns:svg="http://www.w3.org/2000/svg">
  <defs
     id="defs1" />
  <g
     id="layer3"
     style="display:inline"
     transform="translate(-295.81101,-181.85508)">
    <a
       id="a1"
       transform="translate(4.5000003)">
      <path
         style="display:inline;opacity:0.99;fill:#16a085;fill-opacity:1;stroke:#000000;stroke-width:0.498576;stroke-opacity:0"
         d="m 552.10551,572.3614 c -9.24073,-1.20639 -16.763,-5.57 -24.181,-13.105 -9.213,-9.357 -14.007,-18.842 -24.167,-47.822 -3.919,-11.179 -7.994,-22.093 -9.054,-24.254 -2.541,-5.176 -5.99486,-9.26842 -10.22627,-11.17867 -2.58413,-1.16659 -5.23757,-1.92209 -9.14306,-2.07273 -5.95724,-0.22977 -10.21336,0.34126 -12.77679,1.1305 -3.15076,1.06608 -6.35636,2.6247 -9.02647,5.69027 -4.22456,5.09663 -6.74141,12.74463 -8.62141,26.87063 -1.564,11.75 -2.035,14.505 -3.269,19.095 -3.48,12.954 -10.931,18.101 -30.134,20.814 -6.38,0.902 -18.785,1.024 -23.17,0.229 -5.984,-1.085 -10.32435,-3.86673 -12.2592,-7.45836 -0.77808,-1.44434 -1.34691,-2.48121 -1.56159,-3.42864 -0.52086,-2.29865 -0.80338,-3.21734 -0.76104,-5.79593 0.0362,-2.20602 0.39556,-4.3832 1.39683,-7.45494 1.25208,-3.8412 1.68659,-4.06562 5.377,-11.96613 1.92467,-4.12037 4.48318,-7.88949 5.62974,-12.42747 1.41759,-5.61071 1.26739,-17.74973 1.26739,-17.74973 -0.0636,-11.42773 -0.27107,-14.69133 -1.5704,-20.31606 -1.27798,-5.53229 -2.57233,-13.42307 -2.72773,-26.58174 -0.019,-17.369 0.424,-21.034 3.746,-31.021 7.335,-22.049 20.951,-41.957 37.098,-54.242 14.56,-11.078 30.654,-18.091 49.359,-21.509 4.99,-0.912 7.844,-1.095 17.201,-1.106 10.36,-0.011 11.713,0.093 17.699,1.358 33.557,7.096 60.902,28.755 76.705,60.757 2.07,4.192 4.799,10.672 6.064,14.399 0,0 1.69346,4.46984 2.3,6.777 1.20971,4.60147 2.1235,9.24806 2.6532,14.02473 0.63114,5.69141 0.57594,16.95052 0.57594,16.95052 0,14.04 0.24344,14.66146 -1.25736,15.2679 -2.01017,0.62268 -5.70578,0.37085 -6.71878,-0.0172 -1.367,-0.525 -2.854,-3.582 -3.307,-6.8 -0.513,-3.639 -1.309,-4.505 -5.154,-5.607 -5.235,-1.5 -33.914,-4.254 -45.935,-4.411 -9.194,-0.12 -10.026,0.582 -8.532,7.195 1.051,4.652 3.258,8.691 6.954,12.725 6.978,7.615 13.88,11.026 25.253,12.479 7.204,0.921 8.16,1.209 9.18,2.768 0.839,1.283 2.35,9.107 5.034,26.073 3.431,21.686 4.924,27.632 7.981,31.775 1.444,1.957 2.568,2.752 6.603,4.673 7.659,3.644 8.072,4.324 5.89,9.693 -3.687,9.076 -13.267,18.84 -22.419,22.85 -5.034,2.206 -13.73615,3.286 -17.995,2.73 z"
         id="path903" />
    </a>
    <path
       style="display:inline;opacity:0.99;fill:#16a085;fill-opacity:1;stroke:#000000;stroke-width:0.498576;stroke-opacity:0"
       d="m 425.79101,333.65944 c -6.30165,-4.34457 -9.24411,-7.37346 -14.02683,-11.71234 -2.47719,-2.2473 -3.91963,-3.81603 -4.6497,-5.09336 -0.73007,-1.27733 -0.66439,-2.3519 0.12483,-3.87677 1.5831,-3.05873 8.80992,-10.08337 17.99131,-16.85045 16.51238,-12.17034 33.88456,-19.23623 53.09829,-21.597 5.65218,-0.69448 19.95012,-0.69795 26.17522,-0.006 16.49724,1.8328 33.91996,6.78221 36.17188,10.70127 0.63776,1.10992 0.58699,1.30673 0.0166,2.69311 -1.95896,3.78822 -15.68871,21.38888 -21.42303,27.43083 0,0 -2.8389,3.2453 -3.58581,3.48839 -0.47802,0.15558 -3.42214,-0.16362 -3.42214,-0.16362 -7.3399,-0.72326 -26.1208,-0.33758 -34.18195,0.70195 -12.61244,1.62645 -19.61647,3.75447 -34.89996,10.60358 -7.68582,3.44431 -13.29563,5.4895 -14.1439,5.38417 -0.69996,-0.0869 -1.8565,-0.76751 -3.24476,-1.70341 z"
       id="path901" />
    <path
       style="display:inline;opacity:0.99;fill:#16a085;fill-opacity:1;stroke:#000000;stroke-width:0.498576;stroke-opacity:0"
       d="m 327.41801,504.50459 c -3.56586,-4.44824 -4.78204,-6.4026 -8.09508,-13.00862 -9.59843,-19.13872 -18.16454,-48.83104 -20.7599,-71.95914 -0.32836,-2.92617 -0.45283,-5.89485 -0.27659,-6.59705 0.44877,-1.78805 1.99629,-2.44653 11.83664,-5.03658 4.75551,-1.25167 8.84341,-2.47281 9.08423,-2.71362 1.21242,-1.21244 -1.6407,-2.29135 -11.35053,-4.29225 -10.80756,-2.22711 -10.9317,-2.4286 -10.57994,-17.17266 0.46111,-19.32744 2.65635,-32.70631 8.63071,-52.59972 2.38678,-7.9475 6.27353,-17.91562 8.12236,-20.83092 1.34838,-2.12616 1.67331,-2.35265 3.37277,-2.35093 1.03435,7.5e-4 5.24602,0.7956 9.35927,1.76571 11.01156,2.59704 14.74979,3.34252 15.0842,3.00811 0.46243,-0.46243 -2.07391,-2.93976 -8.60271,-8.40254 -9.13488,-7.64333 -10.22081,-8.77487 -10.22081,-10.65017 0,-0.88274 0.79616,-3.1357 1.76924,-5.00659 2.22999,-4.28749 11.21081,-17.73921 14.91992,-22.34748 9.47474,-11.7716 28.94018,-29.91867 34.20964,-31.89266 0.44038,-0.16497 4.78243,3.65878 11.60171,10.21686 10.26856,9.87521 12.55544,11.85015 13.096,11.30959 0.33814,-0.33814 -1.67727,-5.44719 -6.51012,-16.50301 -2.61206,-5.97546 -4.45039,-10.88923 -4.6248,-12.36193 -0.2855,-2.41058 -0.25574,-2.47682 2.15861,-4.80393 5.70504,-5.49894 31.49252,-18.03429 46.55645,-22.63121 16.70227,-5.09687 35.794,-7.71333 42.56474,-5.83334 2.96074,0.82209 3.5863,2.28984 5.70398,9.19986 1.66125,5.42069 2.83477,9.32879 3.18409,9.18179 0.22104,-0.093 1.47053,-6.26516 1.96254,-9.64345 0.97242,-6.67689 2.24296,-8.52723 4.29862,-8.89193 3.87095,-0.68677 38.08986,0.35428 48.35797,4.19018 1.77673,0.66374 2.58849,2.09284 2.61152,5.05527 0.0174,2.24252 -0.33532,7.44281 -0.73766,11.55606 -1.01257,10.35184 -0.99011,12.71795 0.12052,12.698 1.11156,-0.0199 1.59141,-0.70716 6.60368,-9.45727 6.39193,-11.15863 7.71853,-12.96296 9.5307,-12.96296 6.7245,0 34.42929,14.43417 43.78026,22.80947 l 2.67668,2.3974 -2.39265,4.22349 c -4.14677,7.31985 -16.15612,24.81789 -27.19383,39.62235 -6.43829,8.63543 -9.35674,11.85557 -11.26234,12.42651 -1.56747,0.46964 -4.31334,-0.63625 -11.59332,-4.66921 -14.56839,-8.0706 -30.07683,-13.42915 -47.21894,-16.31535 -7.48046,-1.25948 -23.74868,-1.24281 -30.86115,0.0316 -7.17179,1.28506 -17.16713,3.91285 -22.93448,6.02952 -12.21952,4.48469 -27.89072,13.40745 -38.6396,22.00037 -10.58693,8.46345 -21.86695,21.30087 -29.51921,33.59484 -9.12081,14.6533 -13.39341,26.36197 -18.10255,49.60826 -3.27044,16.14428 -3.40882,19.17156 -3.05699,66.87797 0.26322,35.6909 0.2052,41.27804 -0.45155,43.48959 -1.91802,6.45866 -12.99243,14.31153 -27.11508,19.2273 -2.81228,0.97889 -5.4026,1.7798 -5.75627,1.7798 -0.35368,0 -1.85706,-1.51443 -3.34086,-3.36538 z"
       id="path899" />
  </g>
  <circle
     style="display:none;fill:#000000;fill-opacity:0;stroke:#000000;stroke-width:0.809312;stroke-opacity:1"
     id="path1"
     cx="479.32812"
     cy="389.37219"
     r="215.11246"
     transform="translate(-295.81101,-181.85508)" />
</svg>
